# xmcd CD database file generated by Grip 3.0.5
# 
# Track frame offsets:
#       150
#       16207
#       33552
#       53305
#       73347
#       93342
#       117277
#       135755
#       153130
#       171977
#       186792
#       199150
#       229382
# 
# Disc length: 3297 seconds
# 
# Revision: 1
# Processed by: cddbd v1.4PL0 Copyright (c) Steve Scherf et al.
# Submitted via: Grip 3.0.5
# 
DISCID=a50cdf0d
DTITLE=Ben - Like A Wheel Touching Ground
DYEAR=1999
DGENRE=Rock
TTITLE0=Vera
TTITLE1=Anything Under The Sun
TTITLE2=There When I Need It
TTITLE3=The Ride
TTITLE4=Candyman
TTITLE5=Thick Blood
TTITLE6=Clarity
TTITLE7=Tomorrow´s on Her Way
TTITLE8=After The Gold Rush
TTITLE9=Pick up The Telephone
TTITLE10=I´m OK
TTITLE11=Cross Over
TTITLE12=Unnamed bonustrack
EXTD=
EXTT0=
EXTT1=
EXTT2=
EXTT3=
EXTT4=
EXTT5=
EXTT6=
EXTT7=
EXTT8=
EXTT9=
EXTT10=
EXTT11=
EXTT12=
PLAYORDER=
